<svg width="19" height="20" viewBox="0 0 19 20" fill="rgba(255,255,255,0.1)" xmlns="http://www.w3.org/2000/svg">
<path d="M4.79493 14.9902C4.51319 14.7813 4.18275 14.6477 3.83493 14.6022C2.16693 14.3982 1.32893 15.1202 0.727932 15.6102C1.19193 15.7382 1.60693 15.9742 1.59493 16.5802C3.94193 14.9752 5.75393 17.4202 4.00993 19.2462C3.86993 19.3932 4.65993 20.1752 4.77693 19.9642C4.97993 19.5992 5.56693 18.9002 6.22193 18.9002C7.18593 18.9002 7.75093 19.5802 8.04493 19.7382C8.31193 19.8822 8.83793 19.3662 8.68693 19.0632C8.65693 19.0032 8.45793 18.8592 8.11793 18.6252C6.71093 18.4282 6.18293 17.5322 5.74793 16.5992C5.47193 16.0062 5.24493 15.3942 4.79493 14.9902ZM14.2049 14.9902C14.4867 14.7813 14.8171 14.6477 15.1649 14.6022C16.8329 14.3982 17.6719 15.1202 18.2719 15.6102C17.8079 15.7382 17.3929 15.9742 17.4049 16.5802C15.0579 14.9752 13.2469 17.4202 14.9899 19.2462C15.1299 19.3932 14.3399 20.1752 14.2219 19.9642C14.0199 19.5992 13.4319 18.9002 12.7779 18.9002C11.8129 18.9002 11.2489 19.5802 10.9549 19.7382C10.6879 19.8822 10.1619 19.3662 10.3129 19.0632C10.3429 19.0032 10.5419 18.8592 10.8819 18.6252C12.2889 18.4282 12.8169 17.5322 13.2519 16.5992C13.5279 16.0062 13.7549 15.3942 14.2049 14.9902ZM10.2859 12.7792C10.2859 12.5462 10.1109 12.3562 9.89393 12.3562H9.10593C8.88893 12.3562 8.71393 12.5462 8.71393 12.7792V18.4442C8.71393 18.6762 8.88893 18.8652 9.10593 18.8652H9.89393C10.1099 18.8652 10.2859 18.6762 10.2859 18.4442V12.7792ZM8.29693 15.3222C7.74393 15.1832 6.22293 14.7592 5.59493 14.1522C4.78093 13.3682 4.48793 11.0172 2.93993 10.6322C1.64993 10.3122 0.491932 10.9022 0.0159324 11.6822C-0.0440676 11.7832 0.0709324 11.9232 0.267932 11.8602C3.05393 10.9762 3.22493 13.5342 2.93993 14.0752C2.92981 14.0933 2.92176 14.1124 2.91593 14.1322C3.78593 14.0262 4.37793 14.1752 4.80893 14.4602C5.25593 14.7542 5.54093 15.1982 5.78393 15.6912C6.29893 16.7332 6.60593 18.0262 8.29693 18.2032V15.3232V15.3222ZM10.7029 15.3222C11.2559 15.1832 12.7769 14.7592 13.4059 14.1522C14.2179 13.3682 14.5119 11.0172 16.0599 10.6322C17.3499 10.3122 18.5079 10.9022 18.9839 11.6822C19.0439 11.7832 18.9289 11.9232 18.7319 11.8602C15.9459 10.9762 15.7749 13.5342 16.0599 14.0752C16.0701 14.0933 16.0781 14.1124 16.0839 14.1322C15.2139 14.0262 14.6219 14.1752 14.1909 14.4602C13.7439 14.7542 13.4589 15.1982 13.2159 15.6912C12.7009 16.7332 12.3939 18.0262 10.7029 18.2032V15.3232V15.3222Z" fill="white" fill-opacity="0.6"/>
<path d="M9.75368 0.0931987C9.68311 0.0330422 9.59341 0 9.50068 0C9.40795 0 9.31825 0.0330422 9.24768 0.0931987C8.46168 0.747199 6.08068 2.9462 5.51568 3.4172C5.43594 3.48377 5.38272 3.57673 5.36568 3.6792C5.20368 4.5742 4.41668 8.4962 4.24568 9.4432C4.22471 9.55868 4.24868 9.67781 4.31268 9.7762C4.68268 10.3402 5.97768 12.5282 6.38368 13.1462C6.41974 13.2028 6.46934 13.2496 6.52801 13.2822C6.58667 13.3149 6.65255 13.3324 6.71968 13.3332H7.48768C7.67768 13.3332 7.84368 13.1932 7.88768 12.9962L8.23768 11.4192C8.2559 11.3261 8.30541 11.242 8.37798 11.1809C8.45055 11.1198 8.54183 11.0853 8.63668 11.0832H10.3647C10.5547 11.0832 10.7207 11.2222 10.7637 11.4192L11.1137 12.9962C11.1317 13.0897 11.1813 13.1741 11.2541 13.2354C11.3269 13.2968 11.4185 13.3313 11.5137 13.3332H12.2817C12.4147 13.3332 12.5407 13.2632 12.6177 13.1462C13.0237 12.5282 14.3177 10.3402 14.6877 9.7762C14.752 9.67793 14.776 9.55868 14.7547 9.4432C14.5847 8.4962 13.7977 4.5732 13.6367 3.6792C13.6196 3.57676 13.5664 3.48382 13.4867 3.4172C12.9207 2.9462 10.5377 0.747199 9.75268 0.0931987H9.75368Z" fill="url(#paint0_radial_scepter_on)"/>
<defs>
<radialGradient id="paint0_radial_scepter_on" cx="0" cy="0" r="1" gradientUnits="userSpaceOnUse" gradientTransform="translate(9.03691 10.4686) rotate(-90) scale(9.38905 7.0456)">
<stop stop-color="#00CEFF"/>
<stop offset="1" stop-color="#3443C4"/>
</radialGradient>
</defs>
</svg>
